<svg width="35" height="35" viewBox="0 0 35 35" fill="none" xmlns="http://www.w3.org/2000/svg">
<path d="M13.7959 6.3175C15.6626 4.24812 18.588 2.91666 21.8751 2.91666C27.513 2.91666 32.0834 6.83375 32.0834 11.6667C32.0834 14.5673 30.4355 17.1383 27.9009 18.7308L27.7084 18.8417V24.7479C27.7084 25.0383 27.6217 25.322 27.4594 25.5628C27.2972 25.8036 27.0667 25.9905 26.7976 26.0995C26.5285 26.2085 26.233 26.2347 25.9489 26.1747C25.6648 26.1148 25.4051 25.9714 25.203 25.7629L23.5405 24.0508C25.0994 22.2075 26.0167 19.9442 26.0167 17.4985C26.0167 11.5675 20.6238 6.71416 13.7959 6.3175Z" fill="#303754"/>
<path d="M15.1451 26.0837L9.79741 31.5962C9.59531 31.8047 9.33558 31.9481 9.05148 32.0081C8.76739 32.068 8.47186 32.0418 8.20275 31.9328C7.93364 31.8238 7.7032 31.6369 7.54095 31.3961C7.37869 31.1553 7.292 30.8716 7.29199 30.5812V24.675L7.09949 24.5642C4.56345 22.9717 2.91699 20.4006 2.91699 17.5C2.91699 12.6671 7.48741 8.75 13.1253 8.75C18.7632 8.75 23.3337 12.6671 23.3337 17.5C23.3337 21.4754 20.2405 24.8325 16.0041 25.8971C15.7202 25.9701 15.4337 26.0323 15.1451 26.0837Z" fill="#303754"/>
</svg>
